<svg xmlns="http://www.w3.org/2000/svg" viewBox="0 0 96 96" role="img" aria-label="PlantOS">
  <defs>
    <linearGradient id="g" x1="16" y1="8" x2="80" y2="88" gradientUnits="userSpaceOnUse">
      <stop stop-color="#4fc3f7"/>
      <stop offset="1" stop-color="#3ddc97"/>
    </linearGradient>
  </defs>
  <rect width="96" height="96" rx="22" fill="#0c141b"/>
  <rect x="4" y="4" width="88" height="88" rx="18" fill="none" stroke="#243240" stroke-width="2"/>
  <circle cx="48" cy="28" r="10" fill="#e8c547"/>
  <g stroke="#e8c547" stroke-width="2.4" stroke-linecap="round">
    <path d="M48 10 v5"/>
    <path d="M48 41 v5"/>
    <path d="M30 28 h5"/>
    <path d="M61 28 h5"/>
    <path d="M35.5 15.5 l3.5 3.5"/>
    <path d="M57 37 l3.5 3.5"/>
    <path d="M35.5 40.5 l3.5 -3.5"/>
    <path d="M57 19 l3.5 -3.5"/>
  </g>
  <rect x="22" y="52" width="18" height="22" rx="3" fill="none" stroke="url(#g)" stroke-width="2.6"/>
  <rect x="39" y="58" width="18" height="16" rx="3" fill="none" stroke="#7ee0ff" stroke-width="2.6"/>
  <rect x="56" y="48" width="18" height="26" rx="3" fill="none" stroke="#e8c547" stroke-width="2.6"/>
  <path d="M31 63 H39" stroke="#4fc3f7" stroke-width="2.2" fill="none"/>
  <path d="M57 66 H48" stroke="#b39ddb" stroke-width="2.2" fill="none"/>
  <circle cx="48" cy="82" r="3" fill="#3ddc97"/>
</svg>
